<mxfile host="app.diagrams.net" agent="Mozilla/5.0 (Windows NT 10.0; Win64; x64) AppleWebKit/537.36 (KHTML, like Gecko) Chrome/135.0.0.0 Safari/537.36" version="26.2.9">
  <diagram id="C5RBs43oDa-KdzZeNtuy" name="Page-1">
    <mxGraphModel dx="2075" dy="1108" grid="0" gridSize="10" guides="1" tooltips="1" connect="1" arrows="1" fold="1" page="0" pageScale="1" pageWidth="827" pageHeight="1169" math="0" shadow="0">
      <root>
        <mxCell id="WIyWlLk6GJQsqaUBKTNV-0" />
        <mxCell id="WIyWlLk6GJQsqaUBKTNV-1" parent="WIyWlLk6GJQsqaUBKTNV-0" />
        <mxCell id="JVZU_cV8RBFUkfRDbjYJ-0" value="" style="rounded=0;html=1;dashed=1;fontSize=13;strokeColor=light-dark(#000000,#EDEDED);whiteSpace=wrap;" vertex="1" parent="WIyWlLk6GJQsqaUBKTNV-1">
          <mxGeometry x="595" y="-46" width="1254" height="691" as="geometry" />
        </mxCell>
        <mxCell id="JVZU_cV8RBFUkfRDbjYJ-1" value="" style="rounded=1;html=1;dashed=1;strokeColor=#b85450;align=center;verticalAlign=middle;fontFamily=Helvetica;fontSize=11;labelBackgroundColor=default;fillColor=#f8cecc;gradientColor=#ea6b66;whiteSpace=wrap;" vertex="1" parent="WIyWlLk6GJQsqaUBKTNV-1">
          <mxGeometry x="1498" y="40" width="289" height="596" as="geometry" />
        </mxCell>
        <mxCell id="JVZU_cV8RBFUkfRDbjYJ-2" value="" style="rounded=1;html=1;dashed=1;strokeColor=#d6b656;align=center;verticalAlign=middle;fontFamily=Helvetica;fontSize=11;labelBackgroundColor=default;fillColor=#fff2cc;gradientColor=#ffd966;whiteSpace=wrap;" vertex="1" parent="WIyWlLk6GJQsqaUBKTNV-1">
          <mxGeometry x="616" y="40" width="698" height="598" as="geometry" />
        </mxCell>
        <mxCell id="JVZU_cV8RBFUkfRDbjYJ-3" value="" style="rounded=0;html=1;dashed=1;fontSize=13;whiteSpace=wrap;" vertex="1" parent="WIyWlLk6GJQsqaUBKTNV-1">
          <mxGeometry x="196" y="-50" width="234" height="697" as="geometry" />
        </mxCell>
        <mxCell id="JVZU_cV8RBFUkfRDbjYJ-4" value="" style="rounded=1;html=1;dashed=1;strokeColor=#6c8ebf;align=center;verticalAlign=middle;fontFamily=Helvetica;fontSize=11;labelBackgroundColor=default;fillColor=#dae8fc;gradientColor=#7ea6e0;whiteSpace=wrap;" vertex="1" parent="WIyWlLk6GJQsqaUBKTNV-1">
          <mxGeometry x="204" y="40" width="218" height="586" as="geometry" />
        </mxCell>
        <UserObject label="&lt;div&gt;&lt;p style=&quot;text-align:center;margin-left:0;margin-right:0;margin-top:0px;margin-bottom:0px;text-indent:0;vertical-align:middle;direction:ltr;&quot;&gt;&lt;font style=&quot;direction: ltr; letter-spacing: 0px; line-height: 120%; opacity: 1;&quot;&gt;&lt;font style=&quot;color: rgb(0, 0, 0);&quot;&gt;paas_file（用户资产）&lt;/font&gt;&lt;br&gt;&lt;font style=&quot;color: rgb(255, 0, 0);&quot;&gt;600亿大表，日增量6亿左右&lt;/font&gt;&lt;/font&gt;&lt;/p&gt;&lt;/div&gt;" tags="Background" id="JVZU_cV8RBFUkfRDbjYJ-5">
          <mxCell style="verticalAlign=middle;align=center;overflow=width;vsdxID=1;fillColor=light-dark(#c7ecff, #1d293b);shape=stencil(lVLRDoIwDPyavS6j0yDPiP9BwpBFZDiG4t/LKMoGZIlvvfa6u3YlPO2qvBUEWGe0uomXLExF+JkAyKYSWpoxIjwjPC2VFlet+qZA3OaWaaO7etoXBuxjtgPYG1FMD9GUuCD30eeF5UY+2YcDIARq4UQAlzC/VcvG0U1iGp88bRYQjlhYeqnD/iC++EKfzQA9Jv/I/xJfA+44K0+7Dpxd7bLDi9/Ir6bfzOOLh/98DJZjKWVd46259fVxjSk8TJ59AA==);strokeColor=#6c8ebf;strokeWidth=2;spacingTop=-3;spacingBottom=-3;spacingLeft=-3;spacingRight=-3;points=[];labelBackgroundColor=none;rounded=0;html=1;fontSize=13;whiteSpace=wrap;" vertex="1" parent="WIyWlLk6GJQsqaUBKTNV-1">
            <mxGeometry x="222" y="115" width="180" height="54" as="geometry" />
          </mxCell>
        </UserObject>
        <UserObject label="&lt;div&gt;&lt;p style=&quot;text-align:center;margin-left:0;margin-right:0;margin-top:0px;margin-bottom:0px;text-indent:0;vertical-align:middle;direction:ltr;&quot;&gt;&lt;font style=&quot;color: rgb(0, 0, 0); direction: ltr; letter-spacing: 0px; line-height: 120%; opacity: 1;&quot;&gt;TOPIC_ALGORITHM_FILE-AI-META-DATA&lt;br&gt;（文件AI分析结果）&lt;/font&gt;&lt;/p&gt;&lt;/div&gt;" tags="Background" id="JVZU_cV8RBFUkfRDbjYJ-6">
          <mxCell style="verticalAlign=middle;align=center;overflow=width;vsdxID=2;fillColor=light-dark(#C7ECFF,#1D293B);shape=stencil(lVLbDoIwDP2avS5bp0GeEf+DhCGLyHBcxL+XWZQNyBLfetrTndOuRCRtmTWSAGs7o2/yqfKuJOJMAFRdSqO6KSIiJSIptJFXo/s6R9xklmmjux7sCyP2MdsB7IUoogf+SVyQ++iz3HK5T/bhCAiBcjETwCXMb1WqdnTjiJ4iT5sFhDkLSy912B/EF1/osxmgx/gf+V/ia8AdZ+Vp14Gzq112ePEb+dX0m3l88fCfT8FyLIWqKrw1t74+rimFhynSNw==);strokeColor=#6c8ebf;strokeWidth=2;spacingTop=-3;spacingBottom=-3;spacingLeft=-3;spacingRight=-3;points=[];labelBackgroundColor=none;rounded=0;html=1;fontSize=13;whiteSpace=wrap;" vertex="1" parent="WIyWlLk6GJQsqaUBKTNV-1">
            <mxGeometry x="218" y="369" width="188" height="54" as="geometry" />
          </mxCell>
        </UserObject>
        <UserObject label="&lt;div&gt;&lt;p style=&quot;text-align:center;margin-left:0;margin-right:0;margin-top:0px;margin-bottom:0px;text-indent:0;vertical-align:middle;direction:ltr;&quot;&gt;&lt;font style=&quot;color: rgb(0, 0, 0); direction: ltr; letter-spacing: 0px; line-height: 120%; opacity: 1;&quot;&gt;saas_album&lt;/font&gt;&lt;/p&gt;&lt;p style=&quot;text-align:center;margin-left:0;margin-right:0;margin-top:0px;margin-bottom:0px;text-indent:0;vertical-align:middle;direction:ltr;&quot;&gt;&lt;font style=&quot;color: rgb(0, 0, 0); direction: ltr; letter-spacing: 0px; line-height: 120%; opacity: 1;&quot;&gt;（智能相册、回忆故事物料表）&lt;/font&gt;&lt;/p&gt;&lt;/div&gt;" tags="Background" id="JVZU_cV8RBFUkfRDbjYJ-7">
          <mxCell style="verticalAlign=middle;align=center;overflow=width;vsdxID=3;fillColor=#C7ECFF;shape=stencil(lVLbDoIwDP2avS5bp0GeEf+DhCGLyHBcxL+XWZQNyBLfetrTndOuRCRtmTWSAGs7o2/yqfKuJOJMAFRdSqO6KSIiJSIptJFXo/s6R9xklmmjux7sCyP2MdsB7IUoogf+SVyQ++iz3HK5T/bhCAiBcjETwCXMb1WqdnTjiJ4iT5sFhDkLSy912B/EF1/osxmgx/gf+V/ia8AdZ+Vp14Gzq112ePEb+dX0m3l88fCfT8FyLIWqKrw1t74+rimFhynSNw==);strokeColor=#6c8ebf;strokeWidth=2;spacingTop=-3;spacingBottom=-3;spacingLeft=-3;spacingRight=-3;points=[];labelBackgroundColor=none;rounded=0;html=1;fontSize=13;whiteSpace=wrap;" vertex="1" parent="WIyWlLk6GJQsqaUBKTNV-1">
            <mxGeometry x="218" y="509" width="188" height="54" as="geometry" />
          </mxCell>
        </UserObject>
        <UserObject label="&lt;div&gt;&lt;p style=&quot;text-align:center;margin-left:0;margin-right:0;margin-top:0px;margin-bottom:0px;text-indent:0;vertical-align:middle;direction:ltr;&quot;&gt;&lt;font style=&quot;color: rgb(0, 0, 0); direction: ltr; letter-spacing: 0px; line-height: 120%; opacity: 1;&quot;&gt;Flink Job 1&lt;br&gt;写入Kafka缓冲层&lt;/font&gt;&lt;/p&gt;&lt;/div&gt;" tags="Background" id="JVZU_cV8RBFUkfRDbjYJ-8">
          <mxCell style="verticalAlign=middle;align=center;overflow=width;vsdxID=4;fillColor=#f5f5f5;shape=stencil(lVLRDoIwDPyavS5bJ0GeEf+DhCGLyHCA4t/LLMoGZIlvvfa6u3YlIu2qvJUEWNcbfZVPVfQVEScCoJpKGtVPEREZEWmpjbwYPTQF4ja3TBvd9MO+MGIfsx3AXohieuCfxBm59yEvLJf7ZB+OgPBAeTwTwCXMb9WqcXSTiB6Fp80CwpyFpZc67A/iiy/02QzQKPlH/pf4GnDHWXnadeDsapcdXvxGfjX9Zh5fPPznU7AcS6nqGm/Nra+Pa0rhYYrsDQ==);strokeColor=#666666;strokeWidth=2;spacingTop=-3;spacingBottom=-3;spacingLeft=-3;spacingRight=-3;points=[];labelBackgroundColor=none;rounded=0;html=1;fontSize=13;gradientColor=#b3b3b3;whiteSpace=wrap;" vertex="1" parent="WIyWlLk6GJQsqaUBKTNV-1">
            <mxGeometry x="462" y="115" width="96" height="54" as="geometry" />
          </mxCell>
        </UserObject>
        <mxCell id="JVZU_cV8RBFUkfRDbjYJ-9" style="edgeStyle=orthogonalEdgeStyle;shape=connector;rounded=0;orthogonalLoop=1;jettySize=auto;html=1;strokeColor=light-dark(#004C99,#EDEDED);strokeWidth=2;align=center;verticalAlign=middle;fontFamily=Helvetica;fontSize=13;fontColor=default;labelBackgroundColor=default;endArrow=classic;" edge="1" parent="WIyWlLk6GJQsqaUBKTNV-1" source="JVZU_cV8RBFUkfRDbjYJ-11" target="JVZU_cV8RBFUkfRDbjYJ-49">
          <mxGeometry relative="1" as="geometry">
            <Array as="points">
              <mxPoint x="734" y="215" />
            </Array>
          </mxGeometry>
        </mxCell>
        <mxCell id="JVZU_cV8RBFUkfRDbjYJ-10" style="edgeStyle=orthogonalEdgeStyle;shape=connector;rounded=0;orthogonalLoop=1;jettySize=auto;html=1;strokeColor=default;strokeWidth=2;align=center;verticalAlign=middle;fontFamily=Helvetica;fontSize=11;fontColor=default;labelBackgroundColor=default;endArrow=classic;" edge="1" parent="WIyWlLk6GJQsqaUBKTNV-1" source="JVZU_cV8RBFUkfRDbjYJ-11" target="JVZU_cV8RBFUkfRDbjYJ-53">
          <mxGeometry relative="1" as="geometry">
            <Array as="points">
              <mxPoint x="734" y="87" />
              <mxPoint x="1406" y="87" />
            </Array>
          </mxGeometry>
        </mxCell>
        <UserObject label="&lt;div&gt;&lt;p style=&quot;text-align:center;margin-left:0;margin-right:0;margin-top:0px;margin-bottom:0px;text-indent:0;vertical-align:middle;direction:ltr;&quot;&gt;&lt;font style=&quot;color: rgb(0, 0, 0); direction: ltr; letter-spacing: 0px; line-height: 120%; opacity: 1;&quot;&gt;ods_ydyp_yhzc_paas_file_rti&lt;/font&gt;&lt;/p&gt;&lt;p style=&quot;text-align:center;margin-left:0;margin-right:0;margin-top:0px;margin-bottom:0px;text-indent:0;vertical-align:middle;direction:ltr;&quot;&gt;&lt;font style=&quot;color: rgb(0, 0, 0); direction: ltr; letter-spacing: 0px; line-height: 120%; opacity: 1;&quot;&gt;（用户资产）&lt;/font&gt;&lt;/p&gt;&lt;/div&gt;" tags="Background" id="JVZU_cV8RBFUkfRDbjYJ-11">
          <mxCell style="verticalAlign=middle;align=center;overflow=width;vsdxID=5;fillColor=#fff2cc;shape=stencil(lVLRDoIwDPyavS6jVQnPiP9BwpBFZDhB8e9lFmUDssS3XnvdXbsyTO9V3koG4t4ZfZFPVXQVwyMDUE0ljerGiGHGMC21kWej+6Yg3OaWaaOrftgXBuoTtgPEi1DMd9EncSLurc8Ly418sg8HIAgccSKAS5jeqlXj6CYxP8SetggIRyIsPddhexBffKZPZoDvk3/kf4mvAXechadNB86uNtnhxa/kF9Ov5vHFw38+BvOxlKqu6dbc+vK4xhQdJmZv);strokeColor=#d6b656;strokeWidth=2;spacingTop=-3;spacingBottom=-3;spacingLeft=-3;spacingRight=-3;points=[];labelBackgroundColor=none;rounded=0;html=1;fontSize=13;whiteSpace=wrap;" vertex="1" parent="WIyWlLk6GJQsqaUBKTNV-1">
            <mxGeometry x="648" y="115" width="172" height="54" as="geometry" />
          </mxCell>
        </UserObject>
        <UserObject label="&lt;div&gt;&lt;p style=&quot;text-align:center;margin-left:0;margin-right:0;margin-top:0px;margin-bottom:0px;text-indent:0;vertical-align:middle;direction:ltr;&quot;&gt;&lt;font style=&quot;color: rgb(0, 0, 0); direction: ltr; letter-spacing: 0px; line-height: 120%; opacity: 1;&quot;&gt;dwd_ydyp_yhzc_paas_file_exclude_rti（用户资产（用于排除异常））&lt;/font&gt;&lt;/p&gt;&lt;p style=&quot;text-align:center;margin-left:0;margin-right:0;margin-top:0px;margin-bottom:0px;text-indent:0;vertical-align:middle;direction:ltr;&quot;&gt;&lt;font style=&quot;direction: ltr; letter-spacing: 0px; line-height: 120%; opacity: 1; color: rgb(255, 0, 0);&quot;&gt;供下游订阅&lt;/font&gt;&lt;/p&gt;&lt;/div&gt;" tags="Background" id="JVZU_cV8RBFUkfRDbjYJ-12">
          <mxCell style="verticalAlign=middle;align=center;overflow=width;vsdxID=6;fillColor=#ffe6cc;shape=stencil(lVLRDoIwDPyavS6jQwnPiP9BwpBFZDiG4t/LLMoGZIlvvfa6u3YlPOvrohMEWG+0uoqnLE1N+IkAyLYWWpopIjwnPKuUFhethrZE3BWWaaObetgXRuxjtgPYC1FC4+iTOCP3PhSl5UY+2YcjIATK4pkALmF+q5Gto5smND162iwgHLGw9FKH/UF88YU+mwF6SP+R/yW+BtxxVp52HTi72mWHF7+RX02/mccXD//5FCzHUsmmwVtz6+vjmlJ4mDx/Aw==);strokeColor=#d79b00;strokeWidth=2;spacingTop=-3;spacingBottom=-3;spacingLeft=-3;spacingRight=-3;points=[];labelBackgroundColor=none;rounded=0;html=1;fontSize=13;whiteSpace=wrap;" vertex="1" parent="WIyWlLk6GJQsqaUBKTNV-1">
            <mxGeometry x="1065" y="115" width="215" height="54" as="geometry" />
          </mxCell>
        </UserObject>
        <UserObject label="&lt;div&gt;&lt;p style=&quot;text-align:center;margin-left:0;margin-right:0;margin-top:0px;margin-bottom:0px;text-indent:0;vertical-align:middle;direction:ltr;&quot;&gt;&lt;font style=&quot;color: rgb(0, 0, 0); direction: ltr; letter-spacing: 0px; line-height: 120%; opacity: 1;&quot;&gt;Flink Job 3&lt;br&gt;写入Kafka缓冲层&lt;/font&gt;&lt;/p&gt;&lt;/div&gt;" tags="Background" id="JVZU_cV8RBFUkfRDbjYJ-13">
          <mxCell style="verticalAlign=middle;align=center;overflow=width;vsdxID=7;fillColor=#f5f5f5;shape=stencil(lVLRDoIwDPyavS5bJ0GeEf+DhCGLyHCA4t/LLMoGZIlvvfa6u3YlIu2qvJUEWNcbfZVPVfQVEScCoJpKGtVPEREZEWmpjbwYPTQF4ja3TBvd9MO+MGIfsx3AXohieuCfxBm59yEvLJf7ZB+OgPBAeTwTwCXMb9WqcXSTiB6Fp80CwpyFpZc67A/iiy/02QzQKPlH/pf4GnDHWXnadeDsapcdXvxGfjX9Zh5fPPznU7AcS6nqGm/Nra+Pa0rhYYrsDQ==);strokeColor=#666666;strokeWidth=2;spacingTop=-3;spacingBottom=-3;spacingLeft=-3;spacingRight=-3;points=[];labelBackgroundColor=none;rounded=0;html=1;fontSize=13;gradientColor=#b3b3b3;whiteSpace=wrap;" vertex="1" parent="WIyWlLk6GJQsqaUBKTNV-1">
            <mxGeometry x="462" y="369" width="96" height="54" as="geometry" />
          </mxCell>
        </UserObject>
        <mxCell id="JVZU_cV8RBFUkfRDbjYJ-14" style="edgeStyle=orthogonalEdgeStyle;rounded=0;orthogonalLoop=1;jettySize=auto;html=1;strokeWidth=2;fontSize=13;strokeColor=light-dark(#009900,#EDEDED);" edge="1" parent="WIyWlLk6GJQsqaUBKTNV-1" source="JVZU_cV8RBFUkfRDbjYJ-15" target="JVZU_cV8RBFUkfRDbjYJ-51">
          <mxGeometry relative="1" as="geometry">
            <Array as="points">
              <mxPoint x="749" y="323" />
            </Array>
          </mxGeometry>
        </mxCell>
        <UserObject label="&lt;div&gt;&lt;p style=&quot;text-align:center;margin-left:0;margin-right:0;margin-top:0px;margin-bottom:0px;text-indent:0;vertical-align:middle;direction:ltr;&quot;&gt;&lt;font style=&quot;color: rgb(0, 0, 0); direction: ltr; letter-spacing: 0px; line-height: 120%; opacity: 1;&quot;&gt;ods_ydyp_yhzc_topic_algorithm_file_ai_meta_data&lt;br&gt;&lt;/font&gt;&lt;/p&gt;&lt;p style=&quot;text-align:center;margin-left:0;margin-right:0;margin-top:0px;margin-bottom:0px;text-indent:0;vertical-align:middle;direction:ltr;&quot;&gt;&lt;font style=&quot;color: rgb(0, 0, 0); direction: ltr; letter-spacing: 0px; line-height: 120%; opacity: 1;&quot;&gt;（文件AI分析结果）&lt;/font&gt;&lt;/p&gt;&lt;/div&gt;" tags="Background" id="JVZU_cV8RBFUkfRDbjYJ-15">
          <mxCell style="verticalAlign=middle;align=center;overflow=width;vsdxID=8;fillColor=#fff2cc;shape=stencil(lVLRDoIwDPyavS5bJ0GeEf+DhCGLyHCA4t/LLMoGZIlvvfa6u3YlIu2qvJUEWNcbfZVPVfQVEScCoJpKGtVPEREZEWmpjbwYPTQF4ja3TBvd9MO+MGIfsx3AXohieuCfxBm59yEvLJf7ZB+OgBAoj2YCuIT5rVo1jm4S02PkabOAMGdh6aUO+4P44gt9NgM0Sv6R/yW+BtxxVp52HTi72mWHF7+RX02/mccXD//5FCzHUqq6xltz6+vjmlJ4mCJ7Aw==);strokeColor=#d6b656;strokeWidth=2;spacingTop=-3;spacingBottom=-3;spacingLeft=-3;spacingRight=-3;points=[];labelBackgroundColor=none;rounded=0;html=1;fontSize=13;whiteSpace=wrap;" vertex="1" parent="WIyWlLk6GJQsqaUBKTNV-1">
            <mxGeometry x="648" y="369" width="186" height="54" as="geometry" />
          </mxCell>
        </UserObject>
        <UserObject label="&lt;div&gt;&lt;p style=&quot;text-align:center;margin-left:0;margin-right:0;margin-top:0px;margin-bottom:0px;text-indent:0;vertical-align:middle;direction:ltr;&quot;&gt;&lt;font style=&quot;color: rgb(0, 0, 0); direction: ltr; letter-spacing: 0px; line-height: 120%; opacity: 1;&quot;&gt;Flink Job 5&lt;br&gt;写入Kafka缓冲层&lt;/font&gt;&lt;/p&gt;&lt;/div&gt;" tags="Background" id="JVZU_cV8RBFUkfRDbjYJ-16">
          <mxCell style="verticalAlign=middle;align=center;overflow=width;vsdxID=9;fillColor=#f5f5f5;shape=stencil(lVLRDoIwDPyavS5bJ0GeEf+DhCGLyHCA4t/LLMoGZIlvvfa6u3YlIu2qvJUEWNcbfZVPVfQVEScCoJpKGtVPEREZEWmpjbwYPTQF4ja3TBvd9MO+MGIfsx3AXohieuCfxBm59yEvLJf7ZB+OgPBAeTwTwCXMb9WqcXSTiB6Fp80CwpyFpZc67A/iiy/02QzQKPlH/pf4GnDHWXnadeDsapcdXvxGfjX9Zh5fPPznU7AcS6nqGm/Nra+Pa0rhYYrsDQ==);strokeColor=#666666;strokeWidth=2;spacingTop=-3;spacingBottom=-3;spacingLeft=-3;spacingRight=-3;points=[];labelBackgroundColor=none;rounded=0;html=1;fontSize=13;gradientColor=#b3b3b3;whiteSpace=wrap;" vertex="1" parent="WIyWlLk6GJQsqaUBKTNV-1">
            <mxGeometry x="462" y="509" width="96" height="54" as="geometry" />
          </mxCell>
        </UserObject>
        <mxCell id="JVZU_cV8RBFUkfRDbjYJ-17" value="" style="edgeStyle=orthogonalEdgeStyle;shape=connector;rounded=0;orthogonalLoop=1;jettySize=auto;html=1;strokeColor=default;strokeWidth=2;align=center;verticalAlign=middle;fontFamily=Helvetica;fontSize=11;fontColor=default;labelBackgroundColor=default;endArrow=classic;" edge="1" parent="WIyWlLk6GJQsqaUBKTNV-1" source="JVZU_cV8RBFUkfRDbjYJ-18" target="JVZU_cV8RBFUkfRDbjYJ-66">
          <mxGeometry relative="1" as="geometry" />
        </mxCell>
        <UserObject label="&lt;div&gt;&lt;p style=&quot;text-align:center;margin-left:0;margin-right:0;margin-top:0px;margin-bottom:0px;text-indent:0;vertical-align:middle;direction:ltr;&quot;&gt;&lt;font style=&quot;direction: ltr; letter-spacing: 0px; line-height: 120%; opacity: 1;&quot;&gt;dwd_ydyp_yhzc_saas_album_rti&lt;/font&gt;&lt;/p&gt;&lt;p style=&quot;text-align:center;margin-left:0;margin-right:0;margin-top:0px;margin-bottom:0px;text-indent:0;vertical-align:middle;direction:ltr;&quot;&gt;&lt;font style=&quot;direction: ltr; letter-spacing: 0px; line-height: 120%; opacity: 1;&quot;&gt;（智能相册、回忆故事物料表）&lt;br&gt;&lt;font style=&quot;color: rgb(255, 0, 0);&quot;&gt;供下游订阅&lt;/font&gt;&lt;/font&gt;&lt;/p&gt;&lt;/div&gt;" tags="Background" id="JVZU_cV8RBFUkfRDbjYJ-18">
          <mxCell style="verticalAlign=middle;align=center;overflow=width;vsdxID=10;fillColor=#ffe6cc;shape=stencil(lVLLEoIwDPyaXjtt6gPOiP/BDEU6IsUCin8vNQgtMDjessmmu0lDRFTnSSUJsLox+iqfKm1yIk4EQJW5NKrpIyJiIqJMG3kxui1TxFVimTa66Yd9ocM+ZjuAvRAd6Y5/Emfk3tsktVzuk33YAUJOg91AAJcwvFWo0tENA8oPnjbbEObsh/RYh/VBfPGJPpgBug//kR8TXwPuODNP6w6mXa2ytxe/kJ9Nv5jHF9/+8z6YjiVTRYG35tbnx9Wn8DBF/AY=);strokeColor=#d79b00;strokeWidth=2;spacingTop=-3;spacingBottom=-3;spacingLeft=-3;spacingRight=-3;points=[];labelBackgroundColor=none;rounded=0;html=1;fontSize=13;whiteSpace=wrap;" vertex="1" parent="WIyWlLk6GJQsqaUBKTNV-1">
            <mxGeometry x="1065" y="464" width="217" height="54" as="geometry" />
          </mxCell>
        </UserObject>
        <mxCell id="JVZU_cV8RBFUkfRDbjYJ-19" style="edgeStyle=orthogonalEdgeStyle;shape=connector;rounded=0;orthogonalLoop=1;jettySize=auto;html=1;strokeColor=default;strokeWidth=2;align=center;verticalAlign=middle;fontFamily=Helvetica;fontSize=11;fontColor=default;labelBackgroundColor=default;endArrow=classic;" edge="1" parent="WIyWlLk6GJQsqaUBKTNV-1" source="JVZU_cV8RBFUkfRDbjYJ-20" target="JVZU_cV8RBFUkfRDbjYJ-68">
          <mxGeometry relative="1" as="geometry" />
        </mxCell>
        <UserObject label="&lt;div&gt;&lt;p style=&quot;text-align:center;margin-left:0;margin-right:0;margin-top:0px;margin-bottom:0px;text-indent:0;vertical-align:middle;direction:ltr;&quot;&gt;&lt;font style=&quot;direction: ltr; letter-spacing: 0px; line-height: 120%; opacity: 1;&quot;&gt;&lt;font&gt;dwd_ydyp_yhzc_saas_album_ai_authorize_rti&lt;/font&gt;&lt;/font&gt;&lt;/p&gt;&lt;p style=&quot;text-align:center;margin-left:0;margin-right:0;margin-top:0px;margin-bottom:0px;text-indent:0;vertical-align:middle;direction:ltr;&quot;&gt;&lt;font style=&quot;direction: ltr; letter-spacing: 0px; line-height: 120%; opacity: 1;&quot;&gt;&lt;font&gt;（智能相册配置表）&lt;/font&gt;&lt;br&gt;&lt;font style=&quot;color: rgb(255, 0, 0);&quot;&gt;供下游订阅&lt;/font&gt;&lt;/font&gt;&lt;/p&gt;&lt;/div&gt;" tags="Background" id="JVZU_cV8RBFUkfRDbjYJ-20">
          <mxCell style="verticalAlign=middle;align=center;overflow=width;vsdxID=11;fillColor=#ffe6cc;shape=stencil(lVLLEoIwDPyaXjttqiOcEf+DGYp0RIrlIf691CC0wOB4yyab7iYNEVGdJ5UkwOrG6Jt8qrTJiTgTAFXm0qhmiIiIiYgybeTV6LZMEVeJZdrorjv7Qo99zHYAeyE60QP/JC7IfbRJarncJ/uwB4ScBnwkgEsY3ypU6eiGAeWhp812hDn7IT3VYXsQX3ymj2aAHsN/5KfE14A7zsLTtoN5V5vs/cWv5BfTr+bxxff/fAjmY8lUUeCtufXlcQ0pPEwRvwE=);strokeColor=#d79b00;strokeWidth=2;spacingTop=-3;spacingBottom=-3;spacingLeft=-3;spacingRight=-3;points=[];labelBackgroundColor=none;rounded=0;html=1;fontSize=13;whiteSpace=wrap;" vertex="1" parent="WIyWlLk6GJQsqaUBKTNV-1">
            <mxGeometry x="1054" y="563.5" width="221" height="54" as="geometry" />
          </mxCell>
        </UserObject>
        <UserObject label="&lt;div&gt;&lt;p style=&quot;text-align:center;margin-left:0;margin-right:0;margin-top:0px;margin-bottom:0px;text-indent:0;vertical-align:middle;direction:ltr;&quot;&gt;&lt;font style=&quot;color: rgb(0, 0, 0); direction: ltr; letter-spacing: 0px; line-height: 120%; opacity: 1;&quot;&gt;ods_ydyp_yhzc_saas_album_rti（智能相册、回忆故事物料表）&lt;/font&gt;&lt;/p&gt;&lt;/div&gt;" tags="Background" id="JVZU_cV8RBFUkfRDbjYJ-21">
          <mxCell style="verticalAlign=middle;align=center;overflow=width;vsdxID=12;fillColor=#fff2cc;shape=stencil(lVLRDoIwDPyavS6jU5FnxP8gYcgiMhxD8e9lFmUDssS3XnvdXbsSnnZV3goCrDNaXcVTFqYi/EQAZFMJLc0YEZ4RnpZKi4tWfVMgbnPLtNFNPewLA/Yx2wHshSimu+iTOCP33ueF5UY+2YcDIATKjxMBXML0Vi0bRzeJ6QE8bRYQjlhYeq7D9iC++EyfzADdJ//I/xJfA+44C0+bDpxdbbLDi1/JL6ZfzeOLh/98DOZjKWVd46259eVxjSk8TJ69AQ==);strokeColor=#d6b656;strokeWidth=2;spacingTop=-3;spacingBottom=-3;spacingLeft=-3;spacingRight=-3;points=[];labelBackgroundColor=none;rounded=0;html=1;fontSize=13;whiteSpace=wrap;" vertex="1" parent="WIyWlLk6GJQsqaUBKTNV-1">
            <mxGeometry x="656" y="464" width="168" height="54" as="geometry" />
          </mxCell>
        </UserObject>
        <UserObject label="&lt;div&gt;&lt;p style=&quot;text-align:center;margin-left:0;margin-right:0;margin-top:0px;margin-bottom:0px;text-indent:0;vertical-align:middle;direction:ltr;&quot;&gt;&lt;font style=&quot;color: rgb(0, 0, 0); direction: ltr; letter-spacing: 0px; line-height: 120%; opacity: 1;&quot;&gt;ods_ydyp_yhzc_saas_album_ai_authorize_rti（智能相册配置表）&lt;br&gt;&lt;/font&gt;&lt;/p&gt;&lt;/div&gt;" tags="Background" id="JVZU_cV8RBFUkfRDbjYJ-22">
          <mxCell style="verticalAlign=middle;align=center;overflow=width;vsdxID=13;fillColor=#fff2cc;shape=stencil(lVLLEoIwDPyaXjttqiOcEf+DGYp0RIrlIf691CC0wOB4yyab7iYNEVGdJ5UkwOrG6Jt8qrTJiTgTAFXm0qhmiIiIiYgybeTV6LZMEVeJZdrorjv7Qo99zHYAeyE60QP/JC7IfbRJarncJ/uwB4ScBnwkgEsY3ypU6eiGAeWhp812hDn7IT3VYXsQX3ymj2aAHsN/5KfE14A7zsLTtoN5V5vs/cWv5BfTr+bxxff/fAjmY8lUUeCtufXlcQ0pPEwRvwE=);strokeColor=#d6b656;strokeWidth=2;spacingTop=-3;spacingBottom=-3;spacingLeft=-3;spacingRight=-3;points=[];labelBackgroundColor=none;rounded=0;html=1;fontSize=13;whiteSpace=wrap;" vertex="1" parent="WIyWlLk6GJQsqaUBKTNV-1">
            <mxGeometry x="656" y="563" width="221" height="54" as="geometry" />
          </mxCell>
        </UserObject>
        <UserObject label="&lt;div&gt;&lt;p style=&quot;text-align:center;margin-left:0;margin-right:0;margin-top:0px;margin-bottom:0px;text-indent:0;vertical-align:middle;direction:ltr;&quot;&gt;&lt;font style=&quot;color: rgb(0, 0, 0); direction: ltr; letter-spacing: 0px; line-height: 120%; opacity: 1;&quot;&gt;Flink Job 6&lt;br&gt;写入Kafka DWD层&lt;/font&gt;&lt;/p&gt;&lt;/div&gt;" tags="Background" id="JVZU_cV8RBFUkfRDbjYJ-23">
          <mxCell style="verticalAlign=middle;align=center;overflow=width;vsdxID=14;fillColor=#f5f5f5;shape=stencil(lVLRDoIwDPyavS5bJ0GeEf+DhCGLyHCA4t/LLMoGZIlvvfa6u3YlIu2qvJUEWNcbfZVPVfQVEScCoJpKGtVPEREZEWmpjbwYPTQF4ja3TBvd9MO+MGIfsx3AXohieuCfxBm59yEvLJf7ZB+OgPBAeTwTwCXMb9WqcXSTiB6Fp80CwpyFpZc67A/iiy/02QzQKPlH/pf4GnDHWXnadeDsapcdXvxGfjX9Zh5fPPznU7AcS6nqGm/Nra+Pa0rhYYrsDQ==);strokeColor=#666666;strokeWidth=2;spacingTop=-3;spacingBottom=-3;spacingLeft=-3;spacingRight=-3;points=[];labelBackgroundColor=none;rounded=0;html=1;fontSize=13;gradientColor=#b3b3b3;whiteSpace=wrap;" vertex="1" parent="WIyWlLk6GJQsqaUBKTNV-1">
            <mxGeometry x="910" y="464" width="96" height="54" as="geometry" />
          </mxCell>
        </UserObject>
        <UserObject label="&lt;div&gt;&lt;p style=&quot;text-align:center;margin-left:0;margin-right:0;margin-top:0px;margin-bottom:0px;text-indent:0;vertical-align:middle;direction:ltr;&quot;&gt;&lt;font style=&quot;color: rgb(0, 0, 0); direction: ltr; letter-spacing: 0px; line-height: 120%; opacity: 1;&quot;&gt;Flink Job 7&lt;br&gt;写入Kafka DWD层&lt;/font&gt;&lt;/p&gt;&lt;/div&gt;" tags="Background" id="JVZU_cV8RBFUkfRDbjYJ-24">
          <mxCell style="verticalAlign=middle;align=center;overflow=width;vsdxID=15;fillColor=#f5f5f5;shape=stencil(lVLRDoIwDPyavS5bJ0GeEf+DhCGLyHCA4t/LLMoGZIlvvfa6u3YlIu2qvJUEWNcbfZVPVfQVEScCoJpKGtVPEREZEWmpjbwYPTQF4ja3TBvd9MO+MGIfsx3AXohieuCfxBm59yEvLJf7ZB+OgPBAeTwTwCXMb9WqcXSTiB6Fp80CwpyFpZc67A/iiy/02QzQKPlH/pf4GnDHWXnadeDsapcdXvxGfjX9Zh5fPPznU7AcS6nqGm/Nra+Pa0rhYYrsDQ==);strokeColor=#666666;strokeWidth=2;spacingTop=-3;spacingBottom=-3;spacingLeft=-3;spacingRight=-3;points=[];labelBackgroundColor=none;rounded=0;html=1;fontSize=13;gradientColor=#b3b3b3;whiteSpace=wrap;" vertex="1" parent="WIyWlLk6GJQsqaUBKTNV-1">
            <mxGeometry x="913" y="563.5" width="96" height="54" as="geometry" />
          </mxCell>
        </UserObject>
        <UserObject label="&lt;div&gt;&lt;p style=&quot;text-align:center;margin-left:0;margin-right:0;margin-top:0px;margin-bottom:0px;text-indent:0;vertical-align:middle;direction:ltr;&quot;&gt;&lt;font style=&quot;color: rgb(0, 0, 0); direction: ltr; letter-spacing: 0px; line-height: 120%; opacity: 1;&quot;&gt;Flink Job 2&lt;br&gt;写入Kafka DWD层&lt;/font&gt;&lt;/p&gt;&lt;/div&gt;" tags="Background" id="JVZU_cV8RBFUkfRDbjYJ-25">
          <mxCell style="verticalAlign=middle;align=center;overflow=width;vsdxID=16;fillColor=#f5f5f5;shape=stencil(lVLRDoIwDPyavS6jVQjPiP9BwpBFZDiG4t/LHMoGZIlvvfa6u3YlmPV10XECrNdKXvlTlLomeCIAoq25EnqKCOYEs0oqflFyaEuLu8IwTXSTD/PCaPuY6QD2siihh+iTOFvufShKw418sg9HsBBpnMwEcAnzW41oHd00poieNgsIRywsvdRhfxBffKHPZoAe03/kf4mvAXecladdB86udtnhxW/kV9Nv5vHFw38+BcuxVKJp7K259fVxTSl7mJi/AQ==);strokeColor=#666666;strokeWidth=2;spacingTop=-3;spacingBottom=-3;spacingLeft=-3;spacingRight=-3;points=[];labelBackgroundColor=none;rounded=0;html=1;fontSize=13;gradientColor=#b3b3b3;whiteSpace=wrap;" vertex="1" parent="WIyWlLk6GJQsqaUBKTNV-1">
            <mxGeometry x="900" y="115" width="109" height="54" as="geometry" />
          </mxCell>
        </UserObject>
        <mxCell id="JVZU_cV8RBFUkfRDbjYJ-26" value="" style="edgeStyle=orthogonalEdgeStyle;shape=connector;rounded=0;orthogonalLoop=1;jettySize=auto;html=1;strokeColor=default;strokeWidth=2;align=center;verticalAlign=middle;fontFamily=Helvetica;fontSize=11;fontColor=default;labelBackgroundColor=default;endArrow=classic;" edge="1" parent="WIyWlLk6GJQsqaUBKTNV-1" source="JVZU_cV8RBFUkfRDbjYJ-27" target="JVZU_cV8RBFUkfRDbjYJ-64">
          <mxGeometry relative="1" as="geometry" />
        </mxCell>
        <UserObject label="&lt;p style=&quot;text-align:center;margin-left:0;margin-right:0;margin-top:0px;margin-bottom:0px;text-indent:0;vertical-align:middle;direction:ltr;&quot;&gt;&lt;font style=&quot;color: rgb(0, 0, 0); direction: ltr; letter-spacing: 0px; line-height: 120%; opacity: 1;&quot;&gt;dwd_ydyp_yhzc_topic_algorithm_file_ai_meta_data&lt;br&gt;&lt;span style=&quot;color: light-dark(rgb(0, 0, 0), rgb(237, 237, 237)); letter-spacing: 0px; background-color: transparent;&quot;&gt;（文件AI分析结果）&lt;/span&gt;&lt;/font&gt;&lt;/p&gt;&lt;p style=&quot;text-align:center;margin-left:0;margin-right:0;margin-top:0px;margin-bottom:0px;text-indent:0;vertical-align:middle;direction:ltr;&quot;&gt;&lt;font style=&quot;direction: ltr; letter-spacing: 0px; line-height: 120%; opacity: 1; color: rgb(255, 0, 0);&quot;&gt;供下游订阅&lt;br&gt;&lt;/font&gt;&lt;/p&gt;" tags="Background" id="JVZU_cV8RBFUkfRDbjYJ-27">
          <mxCell style="verticalAlign=middle;align=center;overflow=width;vsdxID=17;fillColor=#ffe6cc;shape=stencil(lVLRDoIwDPyavS5bJ0GeEf+DhCGLyHCA4t/LLMoGZIlvvfa6u3YlIu2qvJUEWNcbfZVPVfQVEScCoJpKGtVPEREZEWmpjbwYPTQF4ja3TBvd9MO+MGIfsx3AXohieuCfxBm59yEvLJf7ZB+OgBAoj2YCuIT5rVo1jm4S02PkabOAMGdh6aUO+4P44gt9NgM0Sv6R/yW+BtxxVp52HTi72mWHF7+RX02/mccXD//5FCzHUqq6xltz6+vjmlJ4mCJ7Aw==);strokeColor=#d79b00;strokeWidth=2;spacingTop=-3;spacingBottom=-3;spacingLeft=-3;spacingRight=-3;points=[];labelBackgroundColor=none;rounded=0;html=1;fontSize=13;whiteSpace=wrap;" vertex="1" parent="WIyWlLk6GJQsqaUBKTNV-1">
            <mxGeometry x="1079.5" y="369" width="186" height="54" as="geometry" />
          </mxCell>
        </UserObject>
        <UserObject label="&lt;div&gt;&lt;p style=&quot;text-align:center;margin-left:0;margin-right:0;margin-top:0px;margin-bottom:0px;text-indent:0;vertical-align:middle;direction:ltr;&quot;&gt;&lt;font style=&quot;color: rgb(0, 0, 0); direction: ltr; letter-spacing: 0px; line-height: 120%; opacity: 1;&quot;&gt;Flink Job 4&lt;br&gt;写入Kafka DWD层&lt;/font&gt;&lt;/p&gt;&lt;/div&gt;" tags="Background" id="JVZU_cV8RBFUkfRDbjYJ-28">
          <mxCell style="verticalAlign=middle;align=center;overflow=width;vsdxID=18;fillColor=#f5f5f5;shape=stencil(lVLRDoIwDPyavS6jVQjPiP9BwpBFZDiG4t/LHMoGZIlvvfa6u3YlmPV10XECrNdKXvlTlLomeCIAoq25EnqKCOYEs0oqflFyaEuLu8IwTXSTD/PCaPuY6QD2siihh+iTOFvufShKw418sg9HsBBpnMwEcAnzW41oHd00poieNgsIRywsvdRhfxBffKHPZoAe03/kf4mvAXecladdB86udtnhxW/kV9Nv5vHFw38+BcuxVKJp7K259fVxTSl7mJi/AQ==);strokeColor=#666666;strokeWidth=2;spacingTop=-3;spacingBottom=-3;spacingLeft=-3;spacingRight=-3;points=[];labelBackgroundColor=none;rounded=0;html=1;fontSize=13;gradientColor=#b3b3b3;whiteSpace=wrap;" vertex="1" parent="WIyWlLk6GJQsqaUBKTNV-1">
            <mxGeometry x="900" y="369" width="109" height="54" as="geometry" />
          </mxCell>
        </UserObject>
        <UserObject label="" tags="Background" id="JVZU_cV8RBFUkfRDbjYJ-29">
          <mxCell style="vsdxID=19;edgeStyle=none;startArrow=none;endArrow=block;startSize=5;endSize=5;strokeWidth=2;spacingTop=0;spacingBottom=0;spacingLeft=0;spacingRight=0;verticalAlign=middle;html=1;labelBackgroundColor=#ffffff;rounded=0;exitX=1;exitY=0.5;exitDx=0;exitDy=0;exitPerimeter=0;entryX=0;entryY=0.5;entryDx=0;entryDy=0;entryPerimeter=0;fontSize=13;" edge="1" parent="WIyWlLk6GJQsqaUBKTNV-1" source="JVZU_cV8RBFUkfRDbjYJ-13" target="JVZU_cV8RBFUkfRDbjYJ-15">
            <mxGeometry relative="1" as="geometry">
              <mxPoint x="-37" y="102" as="offset" />
              <Array as="points">
                <mxPoint x="611.5" y="396" />
                <mxPoint x="611.5" y="396" />
              </Array>
            </mxGeometry>
          </mxCell>
        </UserObject>
        <UserObject label="" tags="Background" id="JVZU_cV8RBFUkfRDbjYJ-30">
          <mxCell style="vsdxID=20;edgeStyle=none;startArrow=none;endArrow=block;startSize=5;endSize=5;strokeWidth=2;spacingTop=0;spacingBottom=0;spacingLeft=0;spacingRight=0;verticalAlign=middle;html=1;labelBackgroundColor=#ffffff;rounded=0;exitX=1;exitY=0.5;exitDx=0;exitDy=0;exitPerimeter=0;entryX=0;entryY=0.5;entryDx=0;entryDy=0;entryPerimeter=0;fontSize=13;" edge="1" parent="WIyWlLk6GJQsqaUBKTNV-1" source="JVZU_cV8RBFUkfRDbjYJ-16" target="JVZU_cV8RBFUkfRDbjYJ-22">
            <mxGeometry relative="1" as="geometry">
              <mxPoint x="-36" y="128" as="offset" />
              <Array as="points">
                <mxPoint x="620" y="536" />
                <mxPoint x="620" y="590" />
              </Array>
            </mxGeometry>
          </mxCell>
        </UserObject>
        <UserObject label="" tags="Background" id="JVZU_cV8RBFUkfRDbjYJ-31">
          <mxCell style="vsdxID=21;edgeStyle=none;startArrow=none;endArrow=block;startSize=5;endSize=5;strokeWidth=2;spacingTop=0;spacingBottom=0;spacingLeft=0;spacingRight=0;verticalAlign=middle;html=1;labelBackgroundColor=#ffffff;rounded=0;exitX=1;exitY=0.5;exitDx=0;exitDy=0;exitPerimeter=0;entryX=0;entryY=0.5;entryDx=0;entryDy=0;entryPerimeter=0;fontSize=13;" edge="1" parent="WIyWlLk6GJQsqaUBKTNV-1" source="JVZU_cV8RBFUkfRDbjYJ-5" target="JVZU_cV8RBFUkfRDbjYJ-8">
            <mxGeometry relative="1" as="geometry">
              <mxPoint x="-54" y="102" as="offset" />
              <Array as="points">
                <mxPoint x="421" y="142" />
                <mxPoint x="421" y="142" />
              </Array>
            </mxGeometry>
          </mxCell>
        </UserObject>
        <UserObject label="" tags="Background" id="JVZU_cV8RBFUkfRDbjYJ-32">
          <mxCell style="vsdxID=22;edgeStyle=none;startArrow=none;endArrow=block;startSize=5;endSize=5;strokeWidth=2;spacingTop=0;spacingBottom=0;spacingLeft=0;spacingRight=0;verticalAlign=middle;html=1;labelBackgroundColor=#ffffff;rounded=0;exitX=1;exitY=0.5;exitDx=0;exitDy=0;exitPerimeter=0;entryX=0;entryY=0.5;entryDx=0;entryDy=0;entryPerimeter=0;fontSize=13;" edge="1" parent="WIyWlLk6GJQsqaUBKTNV-1" source="JVZU_cV8RBFUkfRDbjYJ-6" target="JVZU_cV8RBFUkfRDbjYJ-13">
            <mxGeometry relative="1" as="geometry">
              <mxPoint x="-52" y="102" as="offset" />
              <Array as="points">
                <mxPoint x="427" y="396" />
                <mxPoint x="427" y="396" />
              </Array>
            </mxGeometry>
          </mxCell>
        </UserObject>
        <UserObject label="" tags="Background" id="JVZU_cV8RBFUkfRDbjYJ-33">
          <mxCell style="vsdxID=23;edgeStyle=none;startArrow=none;endArrow=block;startSize=5;endSize=5;strokeWidth=2;spacingTop=0;spacingBottom=0;spacingLeft=0;spacingRight=0;verticalAlign=middle;html=1;labelBackgroundColor=#ffffff;rounded=0;exitX=1;exitY=0.5;exitDx=0;exitDy=0;exitPerimeter=0;entryX=0;entryY=0.5;entryDx=0;entryDy=0;entryPerimeter=0;fontSize=13;" edge="1" parent="WIyWlLk6GJQsqaUBKTNV-1" source="JVZU_cV8RBFUkfRDbjYJ-16" target="JVZU_cV8RBFUkfRDbjYJ-21">
            <mxGeometry relative="1" as="geometry">
              <mxPoint x="-36" y="79" as="offset" />
              <Array as="points">
                <mxPoint x="620" y="536" />
                <mxPoint x="620" y="491.69" />
              </Array>
            </mxGeometry>
          </mxCell>
        </UserObject>
        <UserObject label="" tags="Background" id="JVZU_cV8RBFUkfRDbjYJ-34">
          <mxCell style="vsdxID=24;edgeStyle=none;startArrow=none;endArrow=block;startSize=5;endSize=5;strokeWidth=2;spacingTop=0;spacingBottom=0;spacingLeft=0;spacingRight=0;verticalAlign=middle;html=1;labelBackgroundColor=#ffffff;rounded=0;exitX=1;exitY=0.5;exitDx=0;exitDy=0;exitPerimeter=0;entryX=0;entryY=0.5;entryDx=0;entryDy=0;entryPerimeter=0;fontSize=13;" edge="1" parent="WIyWlLk6GJQsqaUBKTNV-1" source="JVZU_cV8RBFUkfRDbjYJ-22" target="JVZU_cV8RBFUkfRDbjYJ-24">
            <mxGeometry relative="1" as="geometry">
              <mxPoint x="-10" y="102" as="offset" />
              <Array as="points">
                <mxPoint x="886.88" y="590" />
                <mxPoint x="886.88" y="590" />
              </Array>
            </mxGeometry>
          </mxCell>
        </UserObject>
        <UserObject label="" tags="Background" id="JVZU_cV8RBFUkfRDbjYJ-35">
          <mxCell style="vsdxID=25;edgeStyle=none;startArrow=none;endArrow=block;startSize=5;endSize=5;strokeWidth=2;spacingTop=0;spacingBottom=0;spacingLeft=0;spacingRight=0;verticalAlign=middle;html=1;labelBackgroundColor=#ffffff;rounded=0;exitX=1;exitY=0.5;exitDx=0;exitDy=0;exitPerimeter=0;entryX=0;entryY=0.5;entryDx=0;entryDy=0;entryPerimeter=0;fontSize=13;" edge="1" parent="WIyWlLk6GJQsqaUBKTNV-1" source="JVZU_cV8RBFUkfRDbjYJ-7" target="JVZU_cV8RBFUkfRDbjYJ-16">
            <mxGeometry relative="1" as="geometry">
              <mxPoint x="-52" y="102" as="offset" />
              <Array as="points">
                <mxPoint x="436" y="536" />
                <mxPoint x="436" y="536" />
              </Array>
            </mxGeometry>
          </mxCell>
        </UserObject>
        <UserObject label="" tags="Background" id="JVZU_cV8RBFUkfRDbjYJ-36">
          <mxCell style="vsdxID=26;edgeStyle=none;startArrow=none;endArrow=block;startSize=5;endSize=5;strokeWidth=2;spacingTop=0;spacingBottom=0;spacingLeft=0;spacingRight=0;verticalAlign=middle;html=1;labelBackgroundColor=#ffffff;rounded=0;exitX=1;exitY=0.5;exitDx=0;exitDy=0;exitPerimeter=0;entryX=0;entryY=0.5;entryDx=0;entryDy=0;entryPerimeter=0;fontSize=13;" edge="1" parent="WIyWlLk6GJQsqaUBKTNV-1" source="JVZU_cV8RBFUkfRDbjYJ-24" target="JVZU_cV8RBFUkfRDbjYJ-20">
            <mxGeometry relative="1" as="geometry">
              <mxPoint x="-11" y="102" as="offset" />
              <Array as="points">
                <mxPoint x="1003.13" y="590" />
                <mxPoint x="1003.13" y="590" />
              </Array>
            </mxGeometry>
          </mxCell>
        </UserObject>
        <UserObject label="" tags="Background" id="JVZU_cV8RBFUkfRDbjYJ-37">
          <mxCell style="vsdxID=27;edgeStyle=none;startArrow=none;endArrow=block;startSize=5;endSize=5;strokeWidth=2;spacingTop=0;spacingBottom=0;spacingLeft=0;spacingRight=0;verticalAlign=middle;html=1;labelBackgroundColor=#ffffff;rounded=0;exitX=1;exitY=0.5;exitDx=0;exitDy=0;exitPerimeter=0;entryX=0;entryY=0.5;entryDx=0;entryDy=0;entryPerimeter=0;fontSize=13;" edge="1" parent="WIyWlLk6GJQsqaUBKTNV-1" source="JVZU_cV8RBFUkfRDbjYJ-23" target="JVZU_cV8RBFUkfRDbjYJ-18">
            <mxGeometry relative="1" as="geometry">
              <mxPoint x="-16" y="102" as="offset" />
              <Array as="points">
                <mxPoint x="1000.88" y="491" />
                <mxPoint x="1000.88" y="491" />
              </Array>
            </mxGeometry>
          </mxCell>
        </UserObject>
        <UserObject label="" tags="Background" id="JVZU_cV8RBFUkfRDbjYJ-38">
          <mxCell style="vsdxID=28;edgeStyle=none;startArrow=none;endArrow=block;startSize=5;endSize=5;strokeWidth=2;spacingTop=0;spacingBottom=0;spacingLeft=0;spacingRight=0;verticalAlign=middle;html=1;labelBackgroundColor=#ffffff;rounded=0;exitX=1;exitY=0.5;exitDx=0;exitDy=0;exitPerimeter=0;entryX=0;entryY=0.5;entryDx=0;entryDy=0;entryPerimeter=0;fontSize=13;" edge="1" parent="WIyWlLk6GJQsqaUBKTNV-1" source="JVZU_cV8RBFUkfRDbjYJ-8" target="JVZU_cV8RBFUkfRDbjYJ-11">
            <mxGeometry relative="1" as="geometry">
              <mxPoint x="-39" y="102" as="offset" />
              <Array as="points">
                <mxPoint x="609.5" y="142" />
                <mxPoint x="609.5" y="142" />
              </Array>
            </mxGeometry>
          </mxCell>
        </UserObject>
        <UserObject label="" tags="Background" id="JVZU_cV8RBFUkfRDbjYJ-39">
          <mxCell style="vsdxID=29;edgeStyle=none;startArrow=none;endArrow=block;startSize=5;endSize=5;strokeWidth=2;spacingTop=0;spacingBottom=0;spacingLeft=0;spacingRight=0;verticalAlign=middle;html=1;labelBackgroundColor=#ffffff;rounded=0;exitX=1;exitY=0.5;exitDx=0;exitDy=0;exitPerimeter=0;entryX=0;entryY=0.5;entryDx=0;entryDy=0;entryPerimeter=0;fontSize=13;" edge="1" parent="WIyWlLk6GJQsqaUBKTNV-1" source="JVZU_cV8RBFUkfRDbjYJ-21" target="JVZU_cV8RBFUkfRDbjYJ-23">
            <mxGeometry relative="1" as="geometry">
              <mxPoint x="-33" y="102" as="offset" />
              <Array as="points">
                <mxPoint x="856.5" y="491" />
                <mxPoint x="856.5" y="491" />
              </Array>
            </mxGeometry>
          </mxCell>
        </UserObject>
        <UserObject label="" tags="Background" id="JVZU_cV8RBFUkfRDbjYJ-40">
          <mxCell style="vsdxID=30;edgeStyle=none;startArrow=none;endArrow=block;startSize=5;endSize=5;strokeWidth=2;spacingTop=0;spacingBottom=0;spacingLeft=0;spacingRight=0;verticalAlign=middle;html=1;labelBackgroundColor=#ffffff;rounded=0;exitX=1;exitY=0.5;exitDx=0;exitDy=0;exitPerimeter=0;entryX=0;entryY=0.5;entryDx=0;entryDy=0;entryPerimeter=0;fontSize=13;" edge="1" parent="WIyWlLk6GJQsqaUBKTNV-1" source="JVZU_cV8RBFUkfRDbjYJ-11" target="JVZU_cV8RBFUkfRDbjYJ-25">
            <mxGeometry relative="1" as="geometry">
              <mxPoint x="-40" y="102" as="offset" />
              <Array as="points">
                <mxPoint x="860" y="142" />
                <mxPoint x="860" y="142" />
              </Array>
            </mxGeometry>
          </mxCell>
        </UserObject>
        <UserObject label="" tags="Background" id="JVZU_cV8RBFUkfRDbjYJ-41">
          <mxCell style="vsdxID=31;edgeStyle=none;startArrow=none;endArrow=block;startSize=5;endSize=5;strokeWidth=2;spacingTop=0;spacingBottom=0;spacingLeft=0;spacingRight=0;verticalAlign=middle;html=1;labelBackgroundColor=#ffffff;rounded=0;exitX=1;exitY=0.5;exitDx=0;exitDy=0;exitPerimeter=0;entryX=0;entryY=0.5;entryDx=0;entryDy=0;entryPerimeter=0;fontSize=13;" edge="1" parent="WIyWlLk6GJQsqaUBKTNV-1" source="JVZU_cV8RBFUkfRDbjYJ-25" target="JVZU_cV8RBFUkfRDbjYJ-12">
            <mxGeometry relative="1" as="geometry">
              <mxPoint x="-28" y="102" as="offset" />
              <Array as="points">
                <mxPoint x="1037.06" y="142" />
                <mxPoint x="1037.06" y="142" />
              </Array>
            </mxGeometry>
          </mxCell>
        </UserObject>
        <UserObject label="" tags="Background" id="JVZU_cV8RBFUkfRDbjYJ-42">
          <mxCell style="vsdxID=32;edgeStyle=none;startArrow=none;endArrow=block;startSize=5;endSize=5;strokeWidth=2;spacingTop=0;spacingBottom=0;spacingLeft=0;spacingRight=0;verticalAlign=middle;html=1;labelBackgroundColor=#ffffff;rounded=0;exitX=1;exitY=0.5;exitDx=0;exitDy=0;exitPerimeter=0;entryX=0;entryY=0.5;entryDx=0;entryDy=0;entryPerimeter=0;fontSize=13;" edge="1" parent="WIyWlLk6GJQsqaUBKTNV-1" source="JVZU_cV8RBFUkfRDbjYJ-15" target="JVZU_cV8RBFUkfRDbjYJ-28">
            <mxGeometry relative="1" as="geometry">
              <mxPoint x="-33" y="102" as="offset" />
              <Array as="points">
                <mxPoint x="867" y="396" />
                <mxPoint x="867" y="396" />
              </Array>
            </mxGeometry>
          </mxCell>
        </UserObject>
        <UserObject label="" tags="Background" id="JVZU_cV8RBFUkfRDbjYJ-43">
          <mxCell style="vsdxID=33;edgeStyle=orthogonalEdgeStyle;startArrow=none;endArrow=block;startSize=5;endSize=5;strokeWidth=2;spacingTop=0;spacingBottom=0;spacingLeft=0;spacingRight=0;verticalAlign=middle;html=1;labelBackgroundColor=#ffffff;rounded=0;exitX=1;exitY=0.5;exitDx=0;exitDy=0;exitPerimeter=0;entryX=0;entryY=0.5;entryDx=0;entryDy=0;entryPerimeter=0;fontSize=13;" edge="1" parent="WIyWlLk6GJQsqaUBKTNV-1" source="JVZU_cV8RBFUkfRDbjYJ-28" target="JVZU_cV8RBFUkfRDbjYJ-27">
            <mxGeometry relative="1" as="geometry">
              <mxPoint x="-28" y="102" as="offset" />
            </mxGeometry>
          </mxCell>
        </UserObject>
        <mxCell id="JVZU_cV8RBFUkfRDbjYJ-44" value="&lt;span style=&quot;font-family: 默认字体; background-color: rgb(255, 255, 255);&quot;&gt;源系统业务侧&lt;/span&gt;" style="rounded=1;html=1;fontSize=13;whiteSpace=wrap;" vertex="1" parent="WIyWlLk6GJQsqaUBKTNV-1">
          <mxGeometry x="262" y="-25" width="100" height="30" as="geometry" />
        </mxCell>
        <mxCell id="JVZU_cV8RBFUkfRDbjYJ-45" value="&lt;span style=&quot;font-family: 默认字体; background-color: rgb(255, 255, 255);&quot;&gt;大数据基础平台&lt;/span&gt;&lt;div style=&quot;margin: 0px; padding: 0px; font-family: 默认字体; background-color: rgb(255, 255, 255);&quot;&gt;基础数据层&lt;/div&gt;" style="rounded=1;html=1;fontSize=13;whiteSpace=wrap;" vertex="1" parent="WIyWlLk6GJQsqaUBKTNV-1">
          <mxGeometry x="1133" y="-30" width="103" height="40" as="geometry" />
        </mxCell>
        <mxCell id="JVZU_cV8RBFUkfRDbjYJ-46" style="edgeStyle=orthogonalEdgeStyle;shape=connector;rounded=0;orthogonalLoop=1;jettySize=auto;html=1;strokeColor=default;strokeWidth=2;align=center;verticalAlign=middle;fontFamily=Helvetica;fontSize=11;fontColor=default;labelBackgroundColor=default;endArrow=classic;" edge="1" parent="WIyWlLk6GJQsqaUBKTNV-1" source="JVZU_cV8RBFUkfRDbjYJ-47" target="JVZU_cV8RBFUkfRDbjYJ-62">
          <mxGeometry relative="1" as="geometry" />
        </mxCell>
        <UserObject label="&lt;div&gt;&lt;p style=&quot;margin: 0px; vertical-align: middle; direction: ltr;&quot;&gt;dwd_ydyp_yhzc_ugc_label_merge_rti&lt;/p&gt;&lt;p style=&quot;margin: 0px; vertical-align: middle; direction: ltr;&quot;&gt;（物料标签信息表）&lt;/p&gt;&lt;p style=&quot;margin: 0px; vertical-align: middle; direction: ltr;&quot;&gt;&lt;font style=&quot;color: rgb(255, 0, 0);&quot;&gt;供下游订阅&lt;/font&gt;&lt;/p&gt;&lt;/div&gt;" tags="Background" id="JVZU_cV8RBFUkfRDbjYJ-47">
          <mxCell style="verticalAlign=middle;align=center;overflow=width;vsdxID=6;fillColor=#ffe6cc;shape=stencil(lVLRDoIwDPyavS6jQwnPiP9BwpBFZDiG4t/LLMoGZIlvvfa6u3YlPOvrohMEWG+0uoqnLE1N+IkAyLYWWpopIjwnPKuUFhethrZE3BWWaaObetgXRuxjtgPYC1FC4+iTOCP3PhSl5UY+2YcjIATK4pkALmF+q5Gto5smND162iwgHLGw9FKH/UF88YU+mwF6SP+R/yW+BtxxVp52HTi72mWHF7+RX02/mccXD//5FCzHUsmmwVtz6+vjmlJ4mDx/Aw==);strokeColor=#d79b00;strokeWidth=2;spacingTop=-3;spacingBottom=-3;spacingLeft=-3;spacingRight=-3;points=[];labelBackgroundColor=none;rounded=0;html=1;fontSize=13;whiteSpace=wrap;" vertex="1" parent="WIyWlLk6GJQsqaUBKTNV-1">
            <mxGeometry x="1065" y="242" width="215" height="54" as="geometry" />
          </mxCell>
        </UserObject>
        <mxCell id="JVZU_cV8RBFUkfRDbjYJ-48" style="edgeStyle=orthogonalEdgeStyle;shape=connector;rounded=0;orthogonalLoop=1;jettySize=auto;html=1;strokeColor=light-dark(#004C99,#EDEDED);strokeWidth=2;align=center;verticalAlign=middle;fontFamily=Helvetica;fontSize=13;fontColor=default;labelBackgroundColor=default;endArrow=classic;" edge="1" parent="WIyWlLk6GJQsqaUBKTNV-1" source="JVZU_cV8RBFUkfRDbjYJ-49" target="JVZU_cV8RBFUkfRDbjYJ-47">
          <mxGeometry relative="1" as="geometry">
            <Array as="points">
              <mxPoint x="955" y="258" />
            </Array>
          </mxGeometry>
        </mxCell>
        <UserObject label="&lt;div&gt;&lt;p style=&quot;text-align:center;margin-left:0;margin-right:0;margin-top:0px;margin-bottom:0px;text-indent:0;vertical-align:middle;direction:ltr;&quot;&gt;&lt;span style=&quot;color: rgb(0, 0, 0); font-family: 默认字体;&quot;&gt;Flink Job 8&lt;/span&gt;&lt;/p&gt;&lt;div style=&quot;margin: 0px; padding: 0px; color: rgb(0, 0, 0); font-family: 默认字体;&quot;&gt;资产动态更新写入Kafka&lt;/div&gt;&lt;/div&gt;" tags="Background" id="JVZU_cV8RBFUkfRDbjYJ-49">
          <mxCell style="verticalAlign=middle;align=center;overflow=width;vsdxID=16;fillColor=#dae8fc;shape=stencil(lVLRDoIwDPyavS6jVQjPiP9BwpBFZDiG4t/LHMoGZIlvvfa6u3YlmPV10XECrNdKXvlTlLomeCIAoq25EnqKCOYEs0oqflFyaEuLu8IwTXSTD/PCaPuY6QD2siihh+iTOFvufShKw418sg9HsBBpnMwEcAnzW41oHd00poieNgsIRywsvdRhfxBffKHPZoAe03/kf4mvAXecladdB86udtnhxW/kV9Nv5vHFw38+BcuxVKJp7K259fVxTSl7mJi/AQ==);strokeColor=#6c8ebf;strokeWidth=2;spacingTop=-3;spacingBottom=-3;spacingLeft=-3;spacingRight=-3;points=[];labelBackgroundColor=none;rounded=0;html=1;fontSize=13;gradientColor=#7ea6e0;whiteSpace=wrap;" vertex="1" parent="WIyWlLk6GJQsqaUBKTNV-1">
            <mxGeometry x="900" y="188" width="109" height="54" as="geometry" />
          </mxCell>
        </UserObject>
        <mxCell id="JVZU_cV8RBFUkfRDbjYJ-50" style="edgeStyle=orthogonalEdgeStyle;shape=connector;rounded=0;orthogonalLoop=1;jettySize=auto;html=1;strokeColor=#009900;strokeWidth=2;align=center;verticalAlign=middle;fontFamily=Helvetica;fontSize=13;fontColor=default;labelBackgroundColor=default;endArrow=classic;" edge="1" parent="WIyWlLk6GJQsqaUBKTNV-1" source="JVZU_cV8RBFUkfRDbjYJ-51" target="JVZU_cV8RBFUkfRDbjYJ-47">
          <mxGeometry relative="1" as="geometry">
            <Array as="points">
              <mxPoint x="955" y="273" />
            </Array>
          </mxGeometry>
        </mxCell>
        <UserObject label="&lt;div&gt;&lt;p style=&quot;text-align:center;margin-left:0;margin-right:0;margin-top:0px;margin-bottom:0px;text-indent:0;vertical-align:middle;direction:ltr;&quot;&gt;&lt;span style=&quot;color: rgb(0, 0, 0); font-family: 默认字体;&quot;&gt;Flink job 9&lt;/span&gt;&lt;/p&gt;&lt;div style=&quot;margin: 0px; padding: 0px; color: rgb(0, 0, 0); font-family: 默认字体;&quot;&gt;第一次写入Kafka DWD层&lt;/div&gt;&lt;/div&gt;" tags="Background" id="JVZU_cV8RBFUkfRDbjYJ-51">
          <mxCell style="verticalAlign=middle;align=center;overflow=width;vsdxID=16;fillColor=#d5e8d4;shape=stencil(lVLRDoIwDPyavS6jVQjPiP9BwpBFZDiG4t/LHMoGZIlvvfa6u3YlmPV10XECrNdKXvlTlLomeCIAoq25EnqKCOYEs0oqflFyaEuLu8IwTXSTD/PCaPuY6QD2siihh+iTOFvufShKw418sg9HsBBpnMwEcAnzW41oHd00poieNgsIRywsvdRhfxBffKHPZoAe03/kf4mvAXecladdB86udtnhxW/kV9Nv5vHFw38+BcuxVKJp7K259fVxTSl7mJi/AQ==);strokeColor=#82b366;strokeWidth=2;spacingTop=-3;spacingBottom=-3;spacingLeft=-3;spacingRight=-3;points=[];labelBackgroundColor=none;rounded=0;html=1;fontSize=13;gradientColor=#97d077;whiteSpace=wrap;" vertex="1" parent="WIyWlLk6GJQsqaUBKTNV-1">
            <mxGeometry x="900" y="296" width="109" height="54" as="geometry" />
          </mxCell>
        </UserObject>
        <mxCell id="JVZU_cV8RBFUkfRDbjYJ-52" value="" style="edgeStyle=orthogonalEdgeStyle;shape=connector;rounded=0;orthogonalLoop=1;jettySize=auto;html=1;strokeColor=default;strokeWidth=2;align=center;verticalAlign=middle;fontFamily=Helvetica;fontSize=11;fontColor=default;labelBackgroundColor=default;endArrow=classic;" edge="1" parent="WIyWlLk6GJQsqaUBKTNV-1" source="JVZU_cV8RBFUkfRDbjYJ-53" target="JVZU_cV8RBFUkfRDbjYJ-55">
          <mxGeometry relative="1" as="geometry" />
        </mxCell>
        <UserObject label="&lt;div&gt;&lt;p style=&quot;text-align:center;margin-left:0;margin-right:0;margin-top:0px;margin-bottom:0px;text-indent:0;vertical-align:middle;direction:ltr;&quot;&gt;&lt;font style=&quot;color: rgb(0, 0, 0); direction: ltr; letter-spacing: 0px; line-height: 120%; opacity: 1;&quot;&gt;Flink Job 10&lt;br&gt;写入Kafka DWD层&lt;/font&gt;&lt;/p&gt;&lt;/div&gt;" tags="Background" id="JVZU_cV8RBFUkfRDbjYJ-53">
          <mxCell style="verticalAlign=middle;align=center;overflow=width;vsdxID=16;fillColor=#f5f5f5;shape=stencil(lVLRDoIwDPyavS6jVQjPiP9BwpBFZDiG4t/LHMoGZIlvvfa6u3YlmPV10XECrNdKXvlTlLomeCIAoq25EnqKCOYEs0oqflFyaEuLu8IwTXSTD/PCaPuY6QD2siihh+iTOFvufShKw418sg9HsBBpnMwEcAnzW41oHd00poieNgsIRywsvdRhfxBffKHPZoAe03/kf4mvAXecladdB86udtnhxW/kV9Nv5vHFw38+BcuxVKJp7K259fVxTSl7mJi/AQ==);strokeColor=#666666;strokeWidth=2;spacingTop=-3;spacingBottom=-3;spacingLeft=-3;spacingRight=-3;points=[];labelBackgroundColor=none;rounded=0;html=1;fontSize=13;gradientColor=#b3b3b3;whiteSpace=wrap;" vertex="1" parent="WIyWlLk6GJQsqaUBKTNV-1">
            <mxGeometry x="1351" y="115" width="109" height="54" as="geometry" />
          </mxCell>
        </UserObject>
        <mxCell id="JVZU_cV8RBFUkfRDbjYJ-54" style="edgeStyle=orthogonalEdgeStyle;shape=connector;rounded=0;orthogonalLoop=1;jettySize=auto;html=1;strokeColor=#009900;strokeWidth=2;align=center;verticalAlign=middle;fontFamily=Helvetica;fontSize=11;fontColor=default;labelBackgroundColor=default;endArrow=classic;" edge="1" parent="WIyWlLk6GJQsqaUBKTNV-1" source="JVZU_cV8RBFUkfRDbjYJ-55" target="JVZU_cV8RBFUkfRDbjYJ-51">
          <mxGeometry relative="1" as="geometry">
            <Array as="points">
              <mxPoint x="1772" y="143" />
              <mxPoint x="1772" y="323" />
            </Array>
          </mxGeometry>
        </mxCell>
        <UserObject label="&lt;div&gt;&lt;p style=&quot;text-align: center; margin: 0px; text-indent: 0px; vertical-align: middle; direction: ltr;&quot;&gt;dwd_ydyp_paas_file_rti&lt;/p&gt;&lt;p style=&quot;text-align: center; margin: 0px; text-indent: 0px; vertical-align: middle; direction: ltr;&quot;&gt;（用户资产）&lt;/p&gt;&lt;/div&gt;" tags="Background" id="JVZU_cV8RBFUkfRDbjYJ-55">
          <mxCell style="verticalAlign=middle;align=center;overflow=width;vsdxID=6;fillColor=#f8cecc;shape=stencil(lVLRDoIwDPyavS6jQwnPiP9BwpBFZDiG4t/LLMoGZIlvvfa6u3YlPOvrohMEWG+0uoqnLE1N+IkAyLYWWpopIjwnPKuUFhethrZE3BWWaaObetgXRuxjtgPYC1FC4+iTOCP3PhSl5UY+2YcjIATK4pkALmF+q5Gto5smND162iwgHLGw9FKH/UF88YU+mwF6SP+R/yW+BtxxVp52HTi72mWHF7+RX02/mccXD//5FCzHUsmmwVtz6+vjmlJ4mDx/Aw==);strokeColor=#b85450;strokeWidth=2;spacingTop=-3;spacingBottom=-3;spacingLeft=-3;spacingRight=-3;points=[];labelBackgroundColor=none;rounded=0;html=1;fontSize=13;whiteSpace=wrap;" vertex="1" parent="WIyWlLk6GJQsqaUBKTNV-1">
            <mxGeometry x="1531" y="115" width="215" height="55" as="geometry" />
          </mxCell>
        </UserObject>
        <mxCell id="JVZU_cV8RBFUkfRDbjYJ-56" style="edgeStyle=orthogonalEdgeStyle;shape=connector;rounded=0;orthogonalLoop=1;jettySize=auto;html=1;strokeColor=light-dark(#004C99,#EDEDED);strokeWidth=2;align=center;verticalAlign=middle;fontFamily=Helvetica;fontSize=11;fontColor=default;labelBackgroundColor=default;endArrow=classic;" edge="1" parent="WIyWlLk6GJQsqaUBKTNV-1" source="JVZU_cV8RBFUkfRDbjYJ-57" target="JVZU_cV8RBFUkfRDbjYJ-49">
          <mxGeometry relative="1" as="geometry">
            <Array as="points">
              <mxPoint x="1639" y="215" />
            </Array>
          </mxGeometry>
        </mxCell>
        <UserObject label="&lt;div&gt;&lt;p style=&quot;text-align: center; margin: 0px; text-indent: 0px; vertical-align: middle; direction: ltr;&quot;&gt;dwd_ydyp_ugc_merge_rti&lt;/p&gt;&lt;p style=&quot;text-align: center; margin: 0px; text-indent: 0px; vertical-align: middle; direction: ltr;&quot;&gt;（物料标签信息表）&lt;/p&gt;&lt;/div&gt;" tags="Background" id="JVZU_cV8RBFUkfRDbjYJ-57">
          <mxCell style="verticalAlign=middle;align=center;overflow=width;vsdxID=6;fillColor=#f8cecc;shape=stencil(lVLRDoIwDPyavS6jQwnPiP9BwpBFZDiG4t/LLMoGZIlvvfa6u3YlPOvrohMEWG+0uoqnLE1N+IkAyLYWWpopIjwnPKuUFhethrZE3BWWaaObetgXRuxjtgPYC1FC4+iTOCP3PhSl5UY+2YcjIATK4pkALmF+q5Gto5smND162iwgHLGw9FKH/UF88YU+mwF6SP+R/yW+BtxxVp52HTi72mWHF7+RX02/mccXD//5FCzHUsmmwVtz6+vjmlJ4mDx/Aw==);strokeColor=#b85450;strokeWidth=2;spacingTop=-3;spacingBottom=-3;spacingLeft=-3;spacingRight=-3;points=[];labelBackgroundColor=none;rounded=0;html=1;fontSize=13;whiteSpace=wrap;" vertex="1" parent="WIyWlLk6GJQsqaUBKTNV-1">
            <mxGeometry x="1531" y="242" width="215" height="55" as="geometry" />
          </mxCell>
        </UserObject>
        <UserObject label="&lt;div&gt;&lt;p style=&quot;margin: 0px; vertical-align: middle; direction: ltr;&quot;&gt;dwd_ydyp_topic_algorithm_file_ai_meta_data&lt;/p&gt;&lt;p style=&quot;margin: 0px; vertical-align: middle; direction: ltr;&quot;&gt;（文件AI分析结果）&lt;/p&gt;&lt;/div&gt;" tags="Background" id="JVZU_cV8RBFUkfRDbjYJ-58">
          <mxCell style="verticalAlign=middle;align=center;overflow=width;vsdxID=6;fillColor=#f8cecc;shape=stencil(lVLRDoIwDPyavS6jQwnPiP9BwpBFZDiG4t/LLMoGZIlvvfa6u3YlPOvrohMEWG+0uoqnLE1N+IkAyLYWWpopIjwnPKuUFhethrZE3BWWaaObetgXRuxjtgPYC1FC4+iTOCP3PhSl5UY+2YcjIATK4pkALmF+q5Gto5smND162iwgHLGw9FKH/UF88YU+mwF6SP+R/yW+BtxxVp52HTi72mWHF7+RX02/mccXD//5FCzHUsmmwVtz6+vjmlJ4mDx/Aw==);strokeColor=#b85450;strokeWidth=2;spacingTop=-3;spacingBottom=-3;spacingLeft=-3;spacingRight=-3;points=[];labelBackgroundColor=none;rounded=0;html=1;fontSize=13;whiteSpace=wrap;" vertex="1" parent="WIyWlLk6GJQsqaUBKTNV-1">
            <mxGeometry x="1531" y="368" width="215" height="55" as="geometry" />
          </mxCell>
        </UserObject>
        <UserObject label="&lt;div&gt;&lt;p style=&quot;text-align: center; margin: 0px; text-indent: 0px; vertical-align: middle; direction: ltr;&quot;&gt;dwd_ydyp_saas_album_rti&lt;/p&gt;&lt;p style=&quot;text-align: center; margin: 0px; text-indent: 0px; vertical-align: middle; direction: ltr;&quot;&gt;（智能相册、回忆故事物料表）&lt;/p&gt;&lt;/div&gt;" tags="Background" id="JVZU_cV8RBFUkfRDbjYJ-59">
          <mxCell style="verticalAlign=middle;align=center;overflow=width;vsdxID=6;fillColor=#f8cecc;shape=stencil(lVLRDoIwDPyavS6jQwnPiP9BwpBFZDiG4t/LLMoGZIlvvfa6u3YlPOvrohMEWG+0uoqnLE1N+IkAyLYWWpopIjwnPKuUFhethrZE3BWWaaObetgXRuxjtgPYC1FC4+iTOCP3PhSl5UY+2YcjIATK4pkALmF+q5Gto5smND162iwgHLGw9FKH/UF88YU+mwF6SP+R/yW+BtxxVp52HTi72mWHF7+RX02/mccXD//5FCzHUsmmwVtz6+vjmlJ4mDx/Aw==);strokeColor=#b85450;strokeWidth=2;spacingTop=-3;spacingBottom=-3;spacingLeft=-3;spacingRight=-3;points=[];labelBackgroundColor=none;rounded=0;html=1;fontSize=13;whiteSpace=wrap;" vertex="1" parent="WIyWlLk6GJQsqaUBKTNV-1">
            <mxGeometry x="1531" y="463" width="215" height="55" as="geometry" />
          </mxCell>
        </UserObject>
        <UserObject label="&lt;div&gt;&lt;p style=&quot;text-align: center; margin: 0px; text-indent: 0px; vertical-align: middle; direction: ltr;&quot;&gt;dwd_ydyp_saas_album_ai_authorize_rti（智能相册配置表）&lt;/p&gt;&lt;/div&gt;" tags="Background" id="JVZU_cV8RBFUkfRDbjYJ-60">
          <mxCell style="verticalAlign=middle;align=center;overflow=width;vsdxID=6;fillColor=#f8cecc;shape=stencil(lVLRDoIwDPyavS6jQwnPiP9BwpBFZDiG4t/LLMoGZIlvvfa6u3YlPOvrohMEWG+0uoqnLE1N+IkAyLYWWpopIjwnPKuUFhethrZE3BWWaaObetgXRuxjtgPYC1FC4+iTOCP3PhSl5UY+2YcjIATK4pkALmF+q5Gto5smND162iwgHLGw9FKH/UF88YU+mwF6SP+R/yW+BtxxVp52HTi72mWHF7+RX02/mccXD//5FCzHUsmmwVtz6+vjmlJ4mDx/Aw==);strokeColor=#b85450;strokeWidth=2;spacingTop=-3;spacingBottom=-3;spacingLeft=-3;spacingRight=-3;points=[];labelBackgroundColor=none;rounded=0;html=1;fontSize=13;whiteSpace=wrap;" vertex="1" parent="WIyWlLk6GJQsqaUBKTNV-1">
            <mxGeometry x="1531" y="562.5" width="215" height="55" as="geometry" />
          </mxCell>
        </UserObject>
        <mxCell id="JVZU_cV8RBFUkfRDbjYJ-61" value="" style="edgeStyle=orthogonalEdgeStyle;shape=connector;rounded=0;orthogonalLoop=1;jettySize=auto;html=1;strokeColor=default;strokeWidth=2;align=center;verticalAlign=middle;fontFamily=Helvetica;fontSize=11;fontColor=default;labelBackgroundColor=default;endArrow=classic;" edge="1" parent="WIyWlLk6GJQsqaUBKTNV-1" source="JVZU_cV8RBFUkfRDbjYJ-62" target="JVZU_cV8RBFUkfRDbjYJ-57">
          <mxGeometry relative="1" as="geometry" />
        </mxCell>
        <UserObject label="&lt;div&gt;&lt;p style=&quot;text-align:center;margin-left:0;margin-right:0;margin-top:0px;margin-bottom:0px;text-indent:0;vertical-align:middle;direction:ltr;&quot;&gt;&lt;font style=&quot;color: rgb(0, 0, 0); direction: ltr; letter-spacing: 0px; line-height: 120%; opacity: 1;&quot;&gt;Flink Job 11&lt;br&gt;写入Kafka DWD层&lt;/font&gt;&lt;/p&gt;&lt;/div&gt;" tags="Background" id="JVZU_cV8RBFUkfRDbjYJ-62">
          <mxCell style="verticalAlign=middle;align=center;overflow=width;vsdxID=16;fillColor=#f5f5f5;shape=stencil(lVLRDoIwDPyavS6jVQjPiP9BwpBFZDiG4t/LHMoGZIlvvfa6u3YlmPV10XECrNdKXvlTlLomeCIAoq25EnqKCOYEs0oqflFyaEuLu8IwTXSTD/PCaPuY6QD2siihh+iTOFvufShKw418sg9HsBBpnMwEcAnzW41oHd00poieNgsIRywsvdRhfxBffKHPZoAe03/kf4mvAXecladdB86udtnhxW/kV9Nv5vHFw38+BcuxVKJp7K259fVxTSl7mJi/AQ==);strokeColor=#666666;strokeWidth=2;spacingTop=-3;spacingBottom=-3;spacingLeft=-3;spacingRight=-3;points=[];labelBackgroundColor=none;rounded=0;html=1;fontSize=13;gradientColor=#b3b3b3;whiteSpace=wrap;" vertex="1" parent="WIyWlLk6GJQsqaUBKTNV-1">
            <mxGeometry x="1351" y="242.5" width="109" height="54" as="geometry" />
          </mxCell>
        </UserObject>
        <mxCell id="JVZU_cV8RBFUkfRDbjYJ-63" value="" style="edgeStyle=orthogonalEdgeStyle;shape=connector;rounded=0;orthogonalLoop=1;jettySize=auto;html=1;strokeColor=default;strokeWidth=2;align=center;verticalAlign=middle;fontFamily=Helvetica;fontSize=11;fontColor=default;labelBackgroundColor=default;endArrow=classic;" edge="1" parent="WIyWlLk6GJQsqaUBKTNV-1" source="JVZU_cV8RBFUkfRDbjYJ-64" target="JVZU_cV8RBFUkfRDbjYJ-58">
          <mxGeometry relative="1" as="geometry" />
        </mxCell>
        <UserObject label="&lt;div&gt;&lt;p style=&quot;text-align:center;margin-left:0;margin-right:0;margin-top:0px;margin-bottom:0px;text-indent:0;vertical-align:middle;direction:ltr;&quot;&gt;&lt;font style=&quot;color: rgb(0, 0, 0); direction: ltr; letter-spacing: 0px; line-height: 120%; opacity: 1;&quot;&gt;Flink Job 12&lt;br&gt;写入Kafka DWD层&lt;/font&gt;&lt;/p&gt;&lt;/div&gt;" tags="Background" id="JVZU_cV8RBFUkfRDbjYJ-64">
          <mxCell style="verticalAlign=middle;align=center;overflow=width;vsdxID=16;fillColor=#f5f5f5;shape=stencil(lVLRDoIwDPyavS6jVQjPiP9BwpBFZDiG4t/LHMoGZIlvvfa6u3YlmPV10XECrNdKXvlTlLomeCIAoq25EnqKCOYEs0oqflFyaEuLu8IwTXSTD/PCaPuY6QD2siihh+iTOFvufShKw418sg9HsBBpnMwEcAnzW41oHd00poieNgsIRywsvdRhfxBffKHPZoAe03/kf4mvAXecladdB86udtnhxW/kV9Nv5vHFw38+BcuxVKJp7K259fVxTSl7mJi/AQ==);strokeColor=#666666;strokeWidth=2;spacingTop=-3;spacingBottom=-3;spacingLeft=-3;spacingRight=-3;points=[];labelBackgroundColor=none;rounded=0;html=1;fontSize=13;gradientColor=#b3b3b3;whiteSpace=wrap;" vertex="1" parent="WIyWlLk6GJQsqaUBKTNV-1">
            <mxGeometry x="1355" y="369" width="109" height="54" as="geometry" />
          </mxCell>
        </UserObject>
        <mxCell id="JVZU_cV8RBFUkfRDbjYJ-65" value="" style="edgeStyle=orthogonalEdgeStyle;shape=connector;rounded=0;orthogonalLoop=1;jettySize=auto;html=1;strokeColor=default;strokeWidth=2;align=center;verticalAlign=middle;fontFamily=Helvetica;fontSize=11;fontColor=default;labelBackgroundColor=default;endArrow=classic;" edge="1" parent="WIyWlLk6GJQsqaUBKTNV-1" source="JVZU_cV8RBFUkfRDbjYJ-66" target="JVZU_cV8RBFUkfRDbjYJ-59">
          <mxGeometry relative="1" as="geometry" />
        </mxCell>
        <UserObject label="&lt;div&gt;&lt;p style=&quot;text-align:center;margin-left:0;margin-right:0;margin-top:0px;margin-bottom:0px;text-indent:0;vertical-align:middle;direction:ltr;&quot;&gt;&lt;font style=&quot;color: rgb(0, 0, 0); direction: ltr; letter-spacing: 0px; line-height: 120%; opacity: 1;&quot;&gt;Flink Job 13&lt;br&gt;写入Kafka DWD层&lt;/font&gt;&lt;/p&gt;&lt;/div&gt;" tags="Background" id="JVZU_cV8RBFUkfRDbjYJ-66">
          <mxCell style="verticalAlign=middle;align=center;overflow=width;vsdxID=16;fillColor=#f5f5f5;shape=stencil(lVLRDoIwDPyavS6jVQjPiP9BwpBFZDiG4t/LHMoGZIlvvfa6u3YlmPV10XECrNdKXvlTlLomeCIAoq25EnqKCOYEs0oqflFyaEuLu8IwTXSTD/PCaPuY6QD2siihh+iTOFvufShKw418sg9HsBBpnMwEcAnzW41oHd00poieNgsIRywsvdRhfxBffKHPZoAe03/kf4mvAXecladdB86udtnhxW/kV9Nv5vHFw38+BcuxVKJp7K259fVxTSl7mJi/AQ==);strokeColor=#666666;strokeWidth=2;spacingTop=-3;spacingBottom=-3;spacingLeft=-3;spacingRight=-3;points=[];labelBackgroundColor=none;rounded=0;html=1;fontSize=13;gradientColor=#b3b3b3;whiteSpace=wrap;" vertex="1" parent="WIyWlLk6GJQsqaUBKTNV-1">
            <mxGeometry x="1355" y="463" width="109" height="54" as="geometry" />
          </mxCell>
        </UserObject>
        <mxCell id="JVZU_cV8RBFUkfRDbjYJ-67" value="" style="edgeStyle=orthogonalEdgeStyle;shape=connector;rounded=0;orthogonalLoop=1;jettySize=auto;html=1;strokeColor=default;strokeWidth=2;align=center;verticalAlign=middle;fontFamily=Helvetica;fontSize=11;fontColor=default;labelBackgroundColor=default;endArrow=classic;" edge="1" parent="WIyWlLk6GJQsqaUBKTNV-1" source="JVZU_cV8RBFUkfRDbjYJ-68" target="JVZU_cV8RBFUkfRDbjYJ-60">
          <mxGeometry relative="1" as="geometry" />
        </mxCell>
        <UserObject label="&lt;div&gt;&lt;p style=&quot;text-align:center;margin-left:0;margin-right:0;margin-top:0px;margin-bottom:0px;text-indent:0;vertical-align:middle;direction:ltr;&quot;&gt;&lt;font style=&quot;color: rgb(0, 0, 0); direction: ltr; letter-spacing: 0px; line-height: 120%; opacity: 1;&quot;&gt;Flink Job 14&lt;br&gt;写入Kafka DWD层&lt;/font&gt;&lt;/p&gt;&lt;/div&gt;" tags="Background" id="JVZU_cV8RBFUkfRDbjYJ-68">
          <mxCell style="verticalAlign=middle;align=center;overflow=width;vsdxID=16;fillColor=#f5f5f5;shape=stencil(lVLRDoIwDPyavS6jVQjPiP9BwpBFZDiG4t/LHMoGZIlvvfa6u3YlmPV10XECrNdKXvlTlLomeCIAoq25EnqKCOYEs0oqflFyaEuLu8IwTXSTD/PCaPuY6QD2siihh+iTOFvufShKw418sg9HsBBpnMwEcAnzW41oHd00poieNgsIRywsvdRhfxBffKHPZoAe03/kf4mvAXecladdB86udtnhxW/kV9Nv5vHFw38+BcuxVKJp7K259fVxTSl7mJi/AQ==);strokeColor=#666666;strokeWidth=2;spacingTop=-3;spacingBottom=-3;spacingLeft=-3;spacingRight=-3;points=[];labelBackgroundColor=none;rounded=0;html=1;fontSize=13;gradientColor=#b3b3b3;whiteSpace=wrap;" vertex="1" parent="WIyWlLk6GJQsqaUBKTNV-1">
            <mxGeometry x="1351" y="563.5" width="109" height="54" as="geometry" />
          </mxCell>
        </UserObject>
        <mxCell id="JVZU_cV8RBFUkfRDbjYJ-69" value="Rocket MQ" style="text;html=1;align=center;verticalAlign=middle;rounded=0;fontFamily=Helvetica;fontSize=22;fontColor=default;labelBackgroundColor=none;whiteSpace=wrap;" vertex="1" parent="WIyWlLk6GJQsqaUBKTNV-1">
          <mxGeometry x="255.5" y="55" width="115" height="30" as="geometry" />
        </mxCell>
        <mxCell id="JVZU_cV8RBFUkfRDbjYJ-70" value="Kafka" style="text;html=1;align=center;verticalAlign=middle;rounded=0;fontFamily=Helvetica;fontSize=22;fontColor=default;labelBackgroundColor=none;whiteSpace=wrap;" vertex="1" parent="WIyWlLk6GJQsqaUBKTNV-1">
          <mxGeometry x="907.5" y="55" width="115" height="30" as="geometry" />
        </mxCell>
        <mxCell id="JVZU_cV8RBFUkfRDbjYJ-71" value="Hbase" style="text;html=1;align=center;verticalAlign=middle;rounded=0;fontFamily=Helvetica;fontSize=22;fontColor=default;labelBackgroundColor=none;whiteSpace=wrap;" vertex="1" parent="WIyWlLk6GJQsqaUBKTNV-1">
          <mxGeometry x="1585" y="55" width="115" height="30" as="geometry" />
        </mxCell>
        <mxCell id="JVZU_cV8RBFUkfRDbjYJ-72" value="&lt;font style=&quot;font-size: 17px; color: rgb(255, 0, 0);&quot;&gt;其中，Flink Job 1-7为4月11号之前完成，Flink Job 8-144月11号后完成&lt;/font&gt;" style="text;html=1;align=left;verticalAlign=middle;rounded=0;fontFamily=Helvetica;fontSize=11;fontColor=default;labelBackgroundColor=#FFFF99;whiteSpace=wrap;" vertex="1" parent="WIyWlLk6GJQsqaUBKTNV-1">
          <mxGeometry x="594.5" y="-95" width="318.5" height="30" as="geometry" />
        </mxCell>
      </root>
    </mxGraphModel>
  </diagram>
</mxfile>
